# xmcd
#
# Track frame offsets:
# 150
# 18539
# 44112
# 62467
# 75396
# 93004
# 110885
# 133663
# 158396
# 177571
# 204556
# 222940
# 240416
# 257290
# 277095
# 291288
#
# Disc length: 4179 seconds
#
#
# Revision: 0
# Processed by: cddbd v1.5.1PL0 Copyright (c) Steve Scherf et al.
# Submitted via: FreeRIP 2.80 
#
DISCID=e1105110
DTITLE=Hello from Tunisia
DYEAR=2004
DGENRE=Pop-Folk
TTITLE0=Intro
TTITLE1=C. Hakim - Habibti
TTITLE2=Latifa - In cha allah
TTITLE3=M. Mounir - Sou Yasou
TTITLE4=Hakim - salamou alikoum
TTITLE5=mami and samira - youm
TTITLE6=A. Dhiab - wala ala balou
TTITLE7=Fella - Mehlan aliya
TTITLE8=Amel Wahbi - ya bent
TTITLE9=Rachid Taha - ach eddani
TTITLE10=Raghleb and faudel - Ihtar
TTITLE11=Saber - meziana
TTITLE12=N. zoghbi - elli tmanitou
TTITLE13=warda - ala weld el khala
TTITLE14=Takfarinas - zamaa..
TTITLE15=Chirine - ah ya lil
EXTD=
EXTT0=
EXTT1=
EXTT2=
EXTT3=
EXTT4=
EXTT5=
EXTT6=
EXTT7=
EXTT8=
EXTT9=
EXTT10=
EXTT11=
EXTT12=
EXTT13=
EXTT14=
EXTT15=
PLAYORDER=
